<mxfile host="app.diagrams.net" modified="2022-06-26T07:07:32.209Z" agent="5.0 (Windows)" etag="umQBBNDmJI6mFO942KHi" version="20.0.3" type="github">
  <diagram id="C5RBs43oDa-KdzZeNtuy" name="Page-1">
    <mxGraphModel dx="2489" dy="806" grid="1" gridSize="10" guides="1" tooltips="1" connect="1" arrows="1" fold="1" page="1" pageScale="1" pageWidth="827" pageHeight="1169" math="0" shadow="0">
      <root>
        <mxCell id="WIyWlLk6GJQsqaUBKTNV-0" />
        <mxCell id="WIyWlLk6GJQsqaUBKTNV-1" parent="WIyWlLk6GJQsqaUBKTNV-0" />
        <mxCell id="-A6sokxmj4y4i3jZrUIm-1" style="edgeStyle=orthogonalEdgeStyle;rounded=0;orthogonalLoop=1;jettySize=auto;html=1;" edge="1" parent="WIyWlLk6GJQsqaUBKTNV-1" source="-A6sokxmj4y4i3jZrUIm-0" target="-A6sokxmj4y4i3jZrUIm-2">
          <mxGeometry relative="1" as="geometry">
            <mxPoint x="414" y="110" as="targetPoint" />
          </mxGeometry>
        </mxCell>
        <mxCell id="-A6sokxmj4y4i3jZrUIm-0" value="Game Started" style="rounded=1;whiteSpace=wrap;html=1;" vertex="1" parent="WIyWlLk6GJQsqaUBKTNV-1">
          <mxGeometry x="354" y="50" width="120" height="30" as="geometry" />
        </mxCell>
        <mxCell id="-A6sokxmj4y4i3jZrUIm-3" style="edgeStyle=orthogonalEdgeStyle;rounded=0;orthogonalLoop=1;jettySize=auto;html=1;" edge="1" parent="WIyWlLk6GJQsqaUBKTNV-1" source="-A6sokxmj4y4i3jZrUIm-2" target="-A6sokxmj4y4i3jZrUIm-4">
          <mxGeometry relative="1" as="geometry">
            <mxPoint x="414" y="170" as="targetPoint" />
          </mxGeometry>
        </mxCell>
        <mxCell id="-A6sokxmj4y4i3jZrUIm-5" style="edgeStyle=orthogonalEdgeStyle;rounded=0;orthogonalLoop=1;jettySize=auto;html=1;" edge="1" parent="WIyWlLk6GJQsqaUBKTNV-1" source="-A6sokxmj4y4i3jZrUIm-2" target="-A6sokxmj4y4i3jZrUIm-6">
          <mxGeometry relative="1" as="geometry">
            <mxPoint x="414" y="180" as="targetPoint" />
          </mxGeometry>
        </mxCell>
        <mxCell id="-A6sokxmj4y4i3jZrUIm-7" style="edgeStyle=orthogonalEdgeStyle;rounded=0;orthogonalLoop=1;jettySize=auto;html=1;" edge="1" parent="WIyWlLk6GJQsqaUBKTNV-1" source="-A6sokxmj4y4i3jZrUIm-2" target="-A6sokxmj4y4i3jZrUIm-8">
          <mxGeometry relative="1" as="geometry">
            <mxPoint x="280" y="180" as="targetPoint" />
          </mxGeometry>
        </mxCell>
        <mxCell id="-A6sokxmj4y4i3jZrUIm-2" value="Main Menu Screen" style="rounded=1;whiteSpace=wrap;html=1;" vertex="1" parent="WIyWlLk6GJQsqaUBKTNV-1">
          <mxGeometry x="354" y="110" width="120" height="30" as="geometry" />
        </mxCell>
        <mxCell id="-A6sokxmj4y4i3jZrUIm-21" style="edgeStyle=orthogonalEdgeStyle;rounded=0;orthogonalLoop=1;jettySize=auto;html=1;entryX=1;entryY=0.5;entryDx=0;entryDy=0;" edge="1" parent="WIyWlLk6GJQsqaUBKTNV-1" source="-A6sokxmj4y4i3jZrUIm-4" target="-A6sokxmj4y4i3jZrUIm-2">
          <mxGeometry relative="1" as="geometry">
            <Array as="points">
              <mxPoint x="550" y="125" />
            </Array>
          </mxGeometry>
        </mxCell>
        <mxCell id="-A6sokxmj4y4i3jZrUIm-4" value="Options Screen" style="rounded=1;whiteSpace=wrap;html=1;" vertex="1" parent="WIyWlLk6GJQsqaUBKTNV-1">
          <mxGeometry x="490" y="180" width="120" height="30" as="geometry" />
        </mxCell>
        <mxCell id="-A6sokxmj4y4i3jZrUIm-19" value="" style="edgeStyle=orthogonalEdgeStyle;rounded=0;orthogonalLoop=1;jettySize=auto;html=1;" edge="1" parent="WIyWlLk6GJQsqaUBKTNV-1" source="-A6sokxmj4y4i3jZrUIm-6" target="-A6sokxmj4y4i3jZrUIm-18">
          <mxGeometry relative="1" as="geometry">
            <Array as="points">
              <mxPoint x="414" y="270" />
              <mxPoint x="530" y="270" />
            </Array>
          </mxGeometry>
        </mxCell>
        <mxCell id="-A6sokxmj4y4i3jZrUIm-70" style="edgeStyle=orthogonalEdgeStyle;rounded=0;orthogonalLoop=1;jettySize=auto;html=1;entryX=0.5;entryY=1;entryDx=0;entryDy=0;" edge="1" parent="WIyWlLk6GJQsqaUBKTNV-1" source="-A6sokxmj4y4i3jZrUIm-6" target="-A6sokxmj4y4i3jZrUIm-2">
          <mxGeometry relative="1" as="geometry" />
        </mxCell>
        <mxCell id="-A6sokxmj4y4i3jZrUIm-6" value="Registration Screen" style="rounded=1;whiteSpace=wrap;html=1;" vertex="1" parent="WIyWlLk6GJQsqaUBKTNV-1">
          <mxGeometry x="354" y="180" width="120" height="30" as="geometry" />
        </mxCell>
        <mxCell id="-A6sokxmj4y4i3jZrUIm-10" value="" style="edgeStyle=orthogonalEdgeStyle;rounded=0;orthogonalLoop=1;jettySize=auto;html=1;" edge="1" parent="WIyWlLk6GJQsqaUBKTNV-1" source="-A6sokxmj4y4i3jZrUIm-8" target="-A6sokxmj4y4i3jZrUIm-9">
          <mxGeometry relative="1" as="geometry" />
        </mxCell>
        <mxCell id="-A6sokxmj4y4i3jZrUIm-22" style="edgeStyle=orthogonalEdgeStyle;rounded=0;orthogonalLoop=1;jettySize=auto;html=1;entryX=0;entryY=0.5;entryDx=0;entryDy=0;" edge="1" parent="WIyWlLk6GJQsqaUBKTNV-1" source="-A6sokxmj4y4i3jZrUIm-8" target="-A6sokxmj4y4i3jZrUIm-2">
          <mxGeometry relative="1" as="geometry">
            <Array as="points">
              <mxPoint x="280" y="125" />
            </Array>
          </mxGeometry>
        </mxCell>
        <mxCell id="-A6sokxmj4y4i3jZrUIm-46" style="edgeStyle=orthogonalEdgeStyle;rounded=0;orthogonalLoop=1;jettySize=auto;html=1;entryX=0.5;entryY=0;entryDx=0;entryDy=0;" edge="1" parent="WIyWlLk6GJQsqaUBKTNV-1" source="-A6sokxmj4y4i3jZrUIm-8" target="-A6sokxmj4y4i3jZrUIm-44">
          <mxGeometry relative="1" as="geometry" />
        </mxCell>
        <mxCell id="-A6sokxmj4y4i3jZrUIm-49" value="" style="edgeStyle=orthogonalEdgeStyle;rounded=0;orthogonalLoop=1;jettySize=auto;html=1;" edge="1" parent="WIyWlLk6GJQsqaUBKTNV-1" source="-A6sokxmj4y4i3jZrUIm-8" target="-A6sokxmj4y4i3jZrUIm-48">
          <mxGeometry relative="1" as="geometry" />
        </mxCell>
        <mxCell id="-A6sokxmj4y4i3jZrUIm-8" value="Login Screen" style="rounded=1;whiteSpace=wrap;html=1;" vertex="1" parent="WIyWlLk6GJQsqaUBKTNV-1">
          <mxGeometry x="220" y="180" width="120" height="30" as="geometry" />
        </mxCell>
        <mxCell id="-A6sokxmj4y4i3jZrUIm-57" style="edgeStyle=orthogonalEdgeStyle;rounded=0;orthogonalLoop=1;jettySize=auto;html=1;entryX=0.25;entryY=1;entryDx=0;entryDy=0;" edge="1" parent="WIyWlLk6GJQsqaUBKTNV-1" source="-A6sokxmj4y4i3jZrUIm-9" target="-A6sokxmj4y4i3jZrUIm-8">
          <mxGeometry relative="1" as="geometry">
            <Array as="points">
              <mxPoint x="150" y="385" />
              <mxPoint x="150" y="250" />
              <mxPoint x="250" y="250" />
            </Array>
          </mxGeometry>
        </mxCell>
        <mxCell id="-A6sokxmj4y4i3jZrUIm-72" style="edgeStyle=orthogonalEdgeStyle;rounded=0;orthogonalLoop=1;jettySize=auto;html=1;entryX=0;entryY=0.5;entryDx=0;entryDy=0;" edge="1" parent="WIyWlLk6GJQsqaUBKTNV-1" source="-A6sokxmj4y4i3jZrUIm-9" target="-A6sokxmj4y4i3jZrUIm-27">
          <mxGeometry relative="1" as="geometry" />
        </mxCell>
        <mxCell id="-A6sokxmj4y4i3jZrUIm-9" value="Login" style="rhombus;whiteSpace=wrap;html=1;rounded=1;" vertex="1" parent="WIyWlLk6GJQsqaUBKTNV-1">
          <mxGeometry x="160" y="345" width="80" height="80" as="geometry" />
        </mxCell>
        <mxCell id="-A6sokxmj4y4i3jZrUIm-59" style="edgeStyle=orthogonalEdgeStyle;rounded=0;orthogonalLoop=1;jettySize=auto;html=1;entryX=0.75;entryY=1;entryDx=0;entryDy=0;" edge="1" parent="WIyWlLk6GJQsqaUBKTNV-1" source="-A6sokxmj4y4i3jZrUIm-18" target="-A6sokxmj4y4i3jZrUIm-6">
          <mxGeometry relative="1" as="geometry">
            <Array as="points">
              <mxPoint x="580" y="385" />
              <mxPoint x="580" y="240" />
              <mxPoint x="444" y="240" />
            </Array>
          </mxGeometry>
        </mxCell>
        <mxCell id="-A6sokxmj4y4i3jZrUIm-83" style="edgeStyle=orthogonalEdgeStyle;rounded=0;orthogonalLoop=1;jettySize=auto;html=1;entryX=0.75;entryY=1;entryDx=0;entryDy=0;" edge="1" parent="WIyWlLk6GJQsqaUBKTNV-1" source="-A6sokxmj4y4i3jZrUIm-18" target="-A6sokxmj4y4i3jZrUIm-8">
          <mxGeometry relative="1" as="geometry">
            <Array as="points">
              <mxPoint x="400" y="330" />
              <mxPoint x="400" y="230" />
              <mxPoint x="310" y="230" />
            </Array>
          </mxGeometry>
        </mxCell>
        <mxCell id="-A6sokxmj4y4i3jZrUIm-18" value="Registration" style="rhombus;whiteSpace=wrap;html=1;rounded=1;" vertex="1" parent="WIyWlLk6GJQsqaUBKTNV-1">
          <mxGeometry x="490" y="290" width="80" height="80" as="geometry" />
        </mxCell>
        <mxCell id="-A6sokxmj4y4i3jZrUIm-37" style="edgeStyle=orthogonalEdgeStyle;rounded=0;orthogonalLoop=1;jettySize=auto;html=1;" edge="1" parent="WIyWlLk6GJQsqaUBKTNV-1" source="-A6sokxmj4y4i3jZrUIm-27" target="-A6sokxmj4y4i3jZrUIm-38">
          <mxGeometry relative="1" as="geometry">
            <mxPoint x="460" y="620" as="targetPoint" />
          </mxGeometry>
        </mxCell>
        <mxCell id="-A6sokxmj4y4i3jZrUIm-27" value="Save edited user profile" style="whiteSpace=wrap;html=1;rounded=1;" vertex="1" parent="WIyWlLk6GJQsqaUBKTNV-1">
          <mxGeometry x="330" y="440" width="120" height="40" as="geometry" />
        </mxCell>
        <mxCell id="-A6sokxmj4y4i3jZrUIm-39" style="edgeStyle=orthogonalEdgeStyle;rounded=0;orthogonalLoop=1;jettySize=auto;html=1;" edge="1" parent="WIyWlLk6GJQsqaUBKTNV-1" source="-A6sokxmj4y4i3jZrUIm-38" target="-A6sokxmj4y4i3jZrUIm-40">
          <mxGeometry relative="1" as="geometry">
            <mxPoint x="630" y="620" as="targetPoint" />
          </mxGeometry>
        </mxCell>
        <mxCell id="-A6sokxmj4y4i3jZrUIm-38" value="Load Script for World State" style="rounded=1;whiteSpace=wrap;html=1;" vertex="1" parent="WIyWlLk6GJQsqaUBKTNV-1">
          <mxGeometry x="470" y="490" width="120" height="40" as="geometry" />
        </mxCell>
        <mxCell id="-A6sokxmj4y4i3jZrUIm-40" value="World Loaded" style="rounded=1;whiteSpace=wrap;html=1;" vertex="1" parent="WIyWlLk6GJQsqaUBKTNV-1">
          <mxGeometry x="330" y="545" width="120" height="40" as="geometry" />
        </mxCell>
        <mxCell id="-A6sokxmj4y4i3jZrUIm-76" style="edgeStyle=orthogonalEdgeStyle;rounded=0;orthogonalLoop=1;jettySize=auto;html=1;entryX=1;entryY=0;entryDx=0;entryDy=0;" edge="1" parent="WIyWlLk6GJQsqaUBKTNV-1" source="-A6sokxmj4y4i3jZrUIm-44" target="-A6sokxmj4y4i3jZrUIm-9">
          <mxGeometry relative="1" as="geometry" />
        </mxCell>
        <mxCell id="-A6sokxmj4y4i3jZrUIm-84" style="edgeStyle=orthogonalEdgeStyle;rounded=0;orthogonalLoop=1;jettySize=auto;html=1;entryX=0.75;entryY=1;entryDx=0;entryDy=0;exitX=0.5;exitY=1;exitDx=0;exitDy=0;" edge="1" parent="WIyWlLk6GJQsqaUBKTNV-1" source="-A6sokxmj4y4i3jZrUIm-44" target="-A6sokxmj4y4i3jZrUIm-8">
          <mxGeometry relative="1" as="geometry">
            <mxPoint x="390" y="370" as="sourcePoint" />
            <Array as="points">
              <mxPoint x="350" y="380" />
              <mxPoint x="400" y="380" />
              <mxPoint x="400" y="230" />
              <mxPoint x="310" y="230" />
            </Array>
          </mxGeometry>
        </mxCell>
        <mxCell id="-A6sokxmj4y4i3jZrUIm-44" value="&lt;div&gt;Edit &lt;br&gt;&lt;/div&gt;&lt;div&gt;Character&lt;/div&gt;" style="rhombus;whiteSpace=wrap;html=1;rounded=1;" vertex="1" parent="WIyWlLk6GJQsqaUBKTNV-1">
          <mxGeometry x="310" y="280" width="80" height="80" as="geometry" />
        </mxCell>
        <mxCell id="-A6sokxmj4y4i3jZrUIm-50" style="edgeStyle=orthogonalEdgeStyle;rounded=0;orthogonalLoop=1;jettySize=auto;html=1;entryX=0;entryY=0.5;entryDx=0;entryDy=0;" edge="1" parent="WIyWlLk6GJQsqaUBKTNV-1" source="-A6sokxmj4y4i3jZrUIm-48" target="-A6sokxmj4y4i3jZrUIm-8">
          <mxGeometry relative="1" as="geometry">
            <Array as="points">
              <mxPoint x="90" y="195" />
            </Array>
          </mxGeometry>
        </mxCell>
        <mxCell id="-A6sokxmj4y4i3jZrUIm-61" style="edgeStyle=orthogonalEdgeStyle;rounded=0;orthogonalLoop=1;jettySize=auto;html=1;entryX=0.5;entryY=0;entryDx=0;entryDy=0;" edge="1" parent="WIyWlLk6GJQsqaUBKTNV-1" source="-A6sokxmj4y4i3jZrUIm-48" target="-A6sokxmj4y4i3jZrUIm-60">
          <mxGeometry relative="1" as="geometry" />
        </mxCell>
        <mxCell id="-A6sokxmj4y4i3jZrUIm-48" value="Reset Character" style="rhombus;whiteSpace=wrap;html=1;rounded=1;" vertex="1" parent="WIyWlLk6GJQsqaUBKTNV-1">
          <mxGeometry x="50" y="250" width="80" height="80" as="geometry" />
        </mxCell>
        <mxCell id="-A6sokxmj4y4i3jZrUIm-62" style="edgeStyle=orthogonalEdgeStyle;rounded=0;orthogonalLoop=1;jettySize=auto;html=1;entryX=0.25;entryY=0;entryDx=0;entryDy=0;" edge="1" parent="WIyWlLk6GJQsqaUBKTNV-1" source="-A6sokxmj4y4i3jZrUIm-60" target="-A6sokxmj4y4i3jZrUIm-8">
          <mxGeometry relative="1" as="geometry">
            <Array as="points">
              <mxPoint x="-50" y="405" />
              <mxPoint x="-50" y="160" />
              <mxPoint x="250" y="160" />
            </Array>
          </mxGeometry>
        </mxCell>
        <mxCell id="-A6sokxmj4y4i3jZrUIm-60" value="Save edited user profile" style="whiteSpace=wrap;html=1;rounded=1;" vertex="1" parent="WIyWlLk6GJQsqaUBKTNV-1">
          <mxGeometry x="-30" y="385" width="120" height="40" as="geometry" />
        </mxCell>
        <mxCell id="-A6sokxmj4y4i3jZrUIm-63" value="yes" style="text;html=1;strokeColor=none;fillColor=none;align=center;verticalAlign=middle;whiteSpace=wrap;rounded=0;" vertex="1" parent="WIyWlLk6GJQsqaUBKTNV-1">
          <mxGeometry x="40" y="340" width="30" height="20" as="geometry" />
        </mxCell>
        <mxCell id="-A6sokxmj4y4i3jZrUIm-65" value="no" style="text;html=1;strokeColor=none;fillColor=none;align=center;verticalAlign=middle;whiteSpace=wrap;rounded=0;" vertex="1" parent="WIyWlLk6GJQsqaUBKTNV-1">
          <mxGeometry x="140" y="190" width="30" height="20" as="geometry" />
        </mxCell>
        <mxCell id="-A6sokxmj4y4i3jZrUIm-67" value="back" style="text;html=1;strokeColor=none;fillColor=none;align=center;verticalAlign=middle;whiteSpace=wrap;rounded=0;" vertex="1" parent="WIyWlLk6GJQsqaUBKTNV-1">
          <mxGeometry x="500" y="100" width="30" height="20" as="geometry" />
        </mxCell>
        <mxCell id="-A6sokxmj4y4i3jZrUIm-68" value="back" style="text;html=1;strokeColor=none;fillColor=none;align=center;verticalAlign=middle;whiteSpace=wrap;rounded=0;" vertex="1" parent="WIyWlLk6GJQsqaUBKTNV-1">
          <mxGeometry x="300" y="100" width="30" height="20" as="geometry" />
        </mxCell>
        <mxCell id="-A6sokxmj4y4i3jZrUIm-69" value="back" style="text;html=1;strokeColor=none;fillColor=none;align=center;verticalAlign=middle;whiteSpace=wrap;rounded=0;" vertex="1" parent="WIyWlLk6GJQsqaUBKTNV-1">
          <mxGeometry x="414" y="150" width="30" height="20" as="geometry" />
        </mxCell>
        <mxCell id="-A6sokxmj4y4i3jZrUIm-71" value="success" style="text;html=1;strokeColor=none;fillColor=none;align=center;verticalAlign=middle;whiteSpace=wrap;rounded=0;" vertex="1" parent="WIyWlLk6GJQsqaUBKTNV-1">
          <mxGeometry x="410" y="310" width="60" height="15" as="geometry" />
        </mxCell>
        <mxCell id="-A6sokxmj4y4i3jZrUIm-77" value="success" style="text;html=1;strokeColor=none;fillColor=none;align=center;verticalAlign=middle;whiteSpace=wrap;rounded=0;" vertex="1" parent="WIyWlLk6GJQsqaUBKTNV-1">
          <mxGeometry x="280" y="410" width="60" height="15" as="geometry" />
        </mxCell>
        <mxCell id="-A6sokxmj4y4i3jZrUIm-78" value="error" style="text;html=1;strokeColor=none;fillColor=none;align=center;verticalAlign=middle;whiteSpace=wrap;rounded=0;" vertex="1" parent="WIyWlLk6GJQsqaUBKTNV-1">
          <mxGeometry x="580" y="310" width="40" height="15" as="geometry" />
        </mxCell>
        <mxCell id="-A6sokxmj4y4i3jZrUIm-80" value="error" style="text;html=1;strokeColor=none;fillColor=none;align=center;verticalAlign=middle;whiteSpace=wrap;rounded=0;" vertex="1" parent="WIyWlLk6GJQsqaUBKTNV-1">
          <mxGeometry x="110" y="330" width="40" height="15" as="geometry" />
        </mxCell>
        <mxCell id="-A6sokxmj4y4i3jZrUIm-85" value="error" style="text;html=1;strokeColor=none;fillColor=none;align=center;verticalAlign=middle;whiteSpace=wrap;rounded=0;" vertex="1" parent="WIyWlLk6GJQsqaUBKTNV-1">
          <mxGeometry x="354" y="360" width="40" height="15" as="geometry" />
        </mxCell>
        <mxCell id="-A6sokxmj4y4i3jZrUIm-88" value="success" style="text;html=1;strokeColor=none;fillColor=none;align=center;verticalAlign=middle;whiteSpace=wrap;rounded=0;" vertex="1" parent="WIyWlLk6GJQsqaUBKTNV-1">
          <mxGeometry x="220" y="345" width="60" height="15" as="geometry" />
        </mxCell>
      </root>
    </mxGraphModel>
  </diagram>
</mxfile>
